<?xml version="1.0" encoding="utf-8"?>
<!-- Svg Vector Icons : http://www.onlinewebfonts.com/icon -->
<!DOCTYPE svg PUBLIC "-//W3C//DTD SVG 1.1//EN" "http://www.w3.org/Graphics/SVG/1.1/DTD/svg11.dtd">
<svg version="1.1" xmlns="http://www.w3.org/2000/svg" xmlns:xlink="http://www.w3.org/1999/xlink" x="0px" y="0px" viewBox="0 0 1000 1000" enable-background="new 0 0 1000 1000" xml:space="preserve">
<metadata> Svg Vector Icons : http://www.onlinewebfonts.com/icon </metadata>
<g><g transform="translate(0.000000,511.000000) scale(0.100000,-0.100000)"><path d="M100,3179.4V1950.1l2719.4,7.7c2989.9,5.8,2815.3,0,3567.1,130.4c824.7,141.9,1800.8,418.1,2740.6,772.9c389.3,145.8,772.9,304.9,772.9,318.4c0,5.7-23,21.1-51.8,32.6c-30.7,11.5-212.9,84.4-408.5,163C8053.2,3935.1,6634,4299.4,5489,4387.7c-138.1,9.6-1338.6,19.2-2813.4,19.2H100V3179.4z M1327.4,3179.4v-613.7h-306.9H713.7v613.7v613.7h306.9h306.9V3179.4z M5009.6,3486.3v-306.9H3475.3H1941.1v306.9v306.8h1534.2h1534.2V3486.3z M6022.2,3745.2c161.1-26.8,466-82.5,680.8-126.6c454.5-92.1,1937-420,1948.5-431.5c3.8-3.8-675.1-7.7-1509.3-7.7H5623.3v306.9v306.8h53.7C5705.8,3793.1,5861.1,3772.1,6022.2,3745.2z"/><path d="M100,111v-1229.3l2719.4,7.7c2989.9,5.8,2815.3,0,3567.1,130.4c824.7,141.9,1800.8,418.1,2740.6,772.9C9516.4-61.7,9900,97.5,9900,111c0,5.7-23,21.1-51.8,32.6c-30.7,11.5-212.9,84.4-408.5,163C8053.2,866.6,6634,1231,5489,1319.2c-138.1,9.6-1338.6,19.2-2813.4,19.2H100V111z M1327.4,111v-613.7h-306.9H713.7V111v613.7h306.9h306.9V111z M5009.6,417.8V111H3475.3H1941.1v306.8v306.9h1534.2h1534.2V417.8z M6022.2,676.7c161.1-26.8,466-82.5,680.8-126.6c454.5-92.1,1937-420,1948.5-431.5c3.8-3.8-675.1-7.7-1509.3-7.7H5623.3v306.8v306.9h53.7C5705.8,724.7,5861.1,703.6,6022.2,676.7z"/><path d="M100-2957.5v-1229.3l2719.4,7.7c2989.9,5.8,2815.3,0,3567.1,130.4c824.7,141.9,1800.8,418.1,2740.6,772.9c389.3,145.8,772.9,304.9,772.9,318.3c0,5.8-23,21.1-51.8,32.6c-30.7,11.5-212.9,84.4-408.5,163C8053.2-2201.9,6634-1837.5,5489-1749.3c-138.1,9.6-1338.6,19.2-2813.4,19.2H100V-2957.5z M1327.4-2957.5v-613.7h-306.9H713.7v613.7v613.7h306.9h306.9V-2957.5z M5009.6-2650.7v-306.8H3475.3H1941.1v306.8v306.9h1534.2h1534.2V-2650.7z M6022.2-2391.8c161.1-26.9,466-82.5,680.8-126.6c454.5-92.1,1937-420,1948.5-431.5c3.8-3.8-675.1-7.7-1509.3-7.7H5623.3v306.8v306.9h53.7C5705.8-2343.8,5861.1-2364.9,6022.2-2391.8z"/></g></g>
</svg>